<svg width="25" height="24" viewBox="0 0 25 24" fill="none" xmlns="http://www.w3.org/2000/svg">
<g clip-path="url(#clip0_3196_1801)">
<path d="M18.9248 0H6.1748C3.0682 0 0.549805 2.5184 0.549805 5.625V18.375C0.549805 21.4816 3.0682 24 6.1748 24H18.9248C22.0314 24 24.5498 21.4816 24.5498 18.375V5.625C24.5498 2.5184 22.0314 0 18.9248 0Z" fill="url(#paint0_radial_3196_1801)"/>
<path d="M18.9248 0H6.1748C3.0682 0 0.549805 2.5184 0.549805 5.625V18.375C0.549805 21.4816 3.0682 24 6.1748 24H18.9248C22.0314 24 24.5498 21.4816 24.5498 18.375V5.625C24.5498 2.5184 22.0314 0 18.9248 0Z" fill="url(#paint1_radial_3196_1801)"/>
<path d="M12.5506 2.625C10.0046 2.625 9.68499 2.63616 8.68505 2.68163C7.68699 2.72738 7.00571 2.88534 6.40965 3.11719C5.79296 3.35662 5.26993 3.67697 4.74887 4.19822C4.22734 4.71937 3.90699 5.24241 3.6668 5.85881C3.4343 6.45506 3.27615 7.13662 3.23124 8.13422C3.18652 9.13425 3.1748 9.45394 3.1748 12.0001C3.1748 14.5463 3.18605 14.8648 3.23143 15.8647C3.27737 16.8628 3.43534 17.5441 3.66699 18.1402C3.90662 18.7568 4.22696 19.2799 4.74821 19.8009C5.26918 20.3225 5.79221 20.6436 6.40843 20.883C7.00496 21.1148 7.68634 21.2728 8.68421 21.3186C9.68424 21.364 10.0036 21.3752 12.5495 21.3752C15.0959 21.3752 15.4144 21.364 16.4144 21.3186C17.4124 21.2728 18.0945 21.1148 18.691 20.883C19.3074 20.6436 19.8297 20.3225 20.3506 19.8009C20.8721 19.2799 21.1923 18.7568 21.4326 18.1404C21.6631 17.5441 21.8213 16.8626 21.8682 15.8649C21.9131 14.865 21.9248 14.5463 21.9248 12.0001C21.9248 9.45394 21.9131 9.13444 21.8682 8.13441C21.8213 7.13634 21.6631 6.45516 21.4326 5.85909C21.1923 5.24241 20.8721 4.71937 20.3506 4.19822C19.8291 3.67678 19.3076 3.35644 18.6904 3.11728C18.0928 2.88534 17.4111 2.72728 16.4131 2.68163C15.413 2.63616 15.0946 2.625 12.5477 2.625H12.5506ZM11.7096 4.31447C11.9593 4.31409 12.2378 4.31447 12.5506 4.31447C15.0539 4.31447 15.3505 4.32347 16.339 4.36838C17.2531 4.41019 17.7492 4.56291 18.0796 4.69125C18.5172 4.86113 18.8291 5.06428 19.157 5.3925C19.4851 5.72063 19.6882 6.03309 19.8586 6.47062C19.9869 6.80062 20.1398 7.29675 20.1814 8.21081C20.2263 9.19913 20.2361 9.49594 20.2361 11.9979C20.2361 14.4999 20.2263 14.7968 20.1814 15.7851C20.1396 16.6991 19.9869 17.1952 19.8586 17.5253C19.6887 17.9629 19.4851 18.2744 19.157 18.6023C18.8289 18.9305 18.5174 19.1335 18.0796 19.3035C17.7496 19.4324 17.2531 19.5848 16.339 19.6266C15.3507 19.6715 15.0539 19.6812 12.5506 19.6812C10.0473 19.6812 9.75062 19.6715 8.7624 19.6266C7.84834 19.5844 7.35221 19.4317 7.02146 19.3033C6.58402 19.1333 6.27146 18.9303 5.94334 18.6022C5.61521 18.274 5.41215 17.9623 5.2418 17.5246C5.11346 17.1945 4.96055 16.6984 4.91893 15.7843C4.87402 14.796 4.86502 14.4992 4.86502 11.9956C4.86502 9.49209 4.87402 9.19678 4.91893 8.20847C4.96074 7.29441 5.11346 6.79828 5.2418 6.46781C5.41177 6.03028 5.61521 5.71781 5.94343 5.38969C6.27155 5.06156 6.58402 4.85841 7.02155 4.68816C7.35202 4.55925 7.84834 4.40691 8.7624 4.36491C9.62724 4.32581 9.9624 4.31409 11.7096 4.31212V4.31447ZM17.555 5.87109C16.9339 5.87109 16.43 6.37453 16.43 6.99572C16.43 7.61681 16.9339 8.12072 17.555 8.12072C18.1761 8.12072 18.68 7.61681 18.68 6.99572C18.68 6.37463 18.1761 5.87072 17.555 5.87072V5.87109ZM12.5506 7.18556C9.8919 7.18556 7.73621 9.34125 7.73621 12.0001C7.73621 14.6589 9.8919 16.8136 12.5506 16.8136C15.2095 16.8136 17.3644 14.6589 17.3644 12.0001C17.3644 9.34134 15.2093 7.18556 12.5505 7.18556H12.5506ZM12.5506 8.87503C14.2765 8.87503 15.6757 10.2741 15.6757 12.0001C15.6757 13.7259 14.2765 15.1252 12.5506 15.1252C10.8247 15.1252 9.42568 13.7259 9.42568 12.0001C9.42568 10.2741 10.8247 8.87503 12.5506 8.87503Z" fill="white"/>
</g>
<defs>
<radialGradient id="paint0_radial_3196_1801" cx="0" cy="0" r="1" gradientUnits="userSpaceOnUse" gradientTransform="translate(6.9248 25.8485) rotate(-90) scale(23.7858 22.1227)">
<stop stop-color="#FFDD55"/>
<stop offset="0.1" stop-color="#FFDD55"/>
<stop offset="0.5" stop-color="#FF543E"/>
<stop offset="1" stop-color="#C837AB"/>
</radialGradient>
<radialGradient id="paint1_radial_3196_1801" cx="0" cy="0" r="1" gradientUnits="userSpaceOnUse" gradientTransform="translate(-3.47029 1.72884) rotate(78.681) scale(10.6324 43.827)">
<stop stop-color="#3771C8"/>
<stop offset="0.128" stop-color="#3771C8"/>
<stop offset="1" stop-color="#6600FF" stop-opacity="0"/>
</radialGradient>
<clipPath id="clip0_3196_1801">
<rect width="24" height="24" fill="white" transform="translate(0.549805)"/>
</clipPath>
</defs>
</svg>
